<svg xmlns="http://www.w3.org/2000/svg" width="1500" height="1050" viewBox="0 0 1500 1050">
  <style>
    text { font-family: Arial, sans-serif; fill: #171717; }
    .actor { stroke: #222; stroke-width: 2; fill: none; }
    .box { fill: #fff; stroke: #222; stroke-width: 2; }
    .uc { fill: #fff; stroke: #222; stroke-width: 1.8; }
    .line { stroke: #333; stroke-width: 1.6; fill: none; }
    .dash { stroke: #555; stroke-width: 1.4; fill: none; stroke-dasharray: 7 6; }
    .label { font-size: 17px; text-anchor: middle; dominant-baseline: middle; }
    .actor-label { font-size: 18px; text-anchor: middle; }
    .title { font-size: 22px; font-weight: 700; text-anchor: middle; }
  </style>

  <rect width="1500" height="1050" fill="white"/>
  <rect class="box" x="245" y="35" width="1010" height="975"/>
  <text class="title" x="750" y="70">HỆ THỐNG DIGITAL RENTAL</text>

  <!-- Khách truy cập -->
  <g class="actor">
    <circle cx="90" cy="170" r="16"/>
    <line x1="90" y1="186" x2="90" y2="240"/>
    <line x1="55" y1="205" x2="125" y2="205"/>
    <line x1="90" y1="240" x2="58" y2="280"/>
    <line x1="90" y1="240" x2="122" y2="280"/>
  </g>
  <text class="actor-label" x="90" y="310">Khách truy cập</text>

  <!-- Khách hàng -->
  <g class="actor">
    <circle cx="90" cy="600" r="16"/>
    <line x1="90" y1="616" x2="90" y2="670"/>
    <line x1="55" y1="635" x2="125" y2="635"/>
    <line x1="90" y1="670" x2="58" y2="710"/>
    <line x1="90" y1="670" x2="122" y2="710"/>
  </g>
  <text class="actor-label" x="90" y="740">Khách hàng</text>

  <!-- Nhân viên -->
  <g class="actor">
    <circle cx="1410" cy="210" r="16"/>
    <line x1="1410" y1="226" x2="1410" y2="280"/>
    <line x1="1375" y1="245" x2="1445" y2="245"/>
    <line x1="1410" y1="280" x2="1378" y2="320"/>
    <line x1="1410" y1="280" x2="1442" y2="320"/>
  </g>
  <text class="actor-label" x="1410" y="350">Nhân viên</text>

  <!-- Quản trị viên -->
  <g class="actor">
    <circle cx="1410" cy="560" r="16"/>
    <line x1="1410" y1="576" x2="1410" y2="630"/>
    <line x1="1375" y1="595" x2="1445" y2="595"/>
    <line x1="1410" y1="630" x2="1378" y2="670"/>
    <line x1="1410" y1="630" x2="1442" y2="670"/>
  </g>
  <text class="actor-label" x="1410" y="700">Quản trị viên</text>

  <!-- Super Admin -->
  <g class="actor">
    <circle cx="1410" cy="850" r="16"/>
    <line x1="1410" y1="866" x2="1410" y2="920"/>
    <line x1="1375" y1="885" x2="1445" y2="885"/>
    <line x1="1410" y1="920" x2="1378" y2="960"/>
    <line x1="1410" y1="920" x2="1442" y2="960"/>
  </g>
  <text class="actor-label" x="1410" y="990">Super Admin</text>

  <!-- Use case khách -->
  <ellipse class="uc" cx="420" cy="135" rx="125" ry="34"/>
  <text class="label" x="420" y="135">Xem, tìm kiếm sản phẩm</text>
  <ellipse class="uc" cx="420" cy="215" rx="125" ry="34"/>
  <text class="label" x="420" y="215">Đăng ký, đăng nhập</text>
  <ellipse class="uc" cx="420" cy="295" rx="125" ry="34"/>
  <text class="label" x="420" y="295">Gửi yêu cầu hỗ trợ</text>

  <!-- Use case khách hàng -->
  <ellipse class="uc" cx="420" cy="415" rx="125" ry="34"/>
  <text class="label" x="420" y="415">Quản lý hồ sơ, địa chỉ</text>
  <ellipse class="uc" cx="420" cy="495" rx="125" ry="34"/>
  <text class="label" x="420" y="495">Xác thực eKYC</text>
  <ellipse class="uc" cx="420" cy="575" rx="125" ry="34"/>
  <text class="label" x="420" y="575">Quản lý giỏ hàng</text>
  <ellipse class="uc" cx="420" cy="655" rx="125" ry="34"/>
  <text class="label" x="420" y="655">Mua sản phẩm</text>
  <ellipse class="uc" cx="420" cy="735" rx="125" ry="34"/>
  <text class="label" x="420" y="735">Thuê thiết bị</text>
  <ellipse class="uc" cx="420" cy="815" rx="125" ry="34"/>
  <text class="label" x="420" y="815">Theo dõi đơn hàng</text>
  <ellipse class="uc" cx="420" cy="895" rx="125" ry="34"/>
  <text class="label" x="420" y="895">Đánh giá sản phẩm</text>

  <!-- Use case nhân viên -->
  <ellipse class="uc" cx="740" cy="150" rx="125" ry="34"/>
  <text class="label" x="740" y="150">Xử lý đơn mua</text>
  <ellipse class="uc" cx="740" cy="230" rx="125" ry="34"/>
  <text class="label" x="740" y="230">Xử lý đơn thuê</text>
  <ellipse class="uc" cx="740" cy="310" rx="125" ry="34"/>
  <text class="label" x="740" y="310">Duyệt hồ sơ eKYC</text>
  <ellipse class="uc" cx="740" cy="390" rx="125" ry="34"/>
  <text class="label" x="740" y="390">Kiểm duyệt đánh giá</text>
  <ellipse class="uc" cx="740" cy="470" rx="125" ry="34"/>
  <text class="label" x="740" y="470">Xử lý hỗ trợ</text>

  <!-- Use case quản trị viên -->
  <ellipse class="uc" cx="1050" cy="150" rx="135" ry="34"/>
  <text class="label" x="1050" y="150">Quản lý sản phẩm, danh mục</text>
  <ellipse class="uc" cx="1050" cy="240" rx="135" ry="34"/>
  <text class="label" x="1050" y="240">Quản lý kho, thiết bị</text>
  <ellipse class="uc" cx="1050" cy="440" rx="135" ry="34"/>
  <text class="label" x="1050" y="440">Quản lý voucher</text>
  <ellipse class="uc" cx="1050" cy="530" rx="135" ry="34"/>
  <text class="label" x="1050" y="530">Quản lý người dùng</text>
  <ellipse class="uc" cx="1050" cy="620" rx="135" ry="34"/>
  <text class="label" x="1050" y="620">Xem thống kê, nhật ký</text>

  <!-- Use case Super Admin -->
  <ellipse class="uc" cx="1050" cy="815" rx="135" ry="34"/>
  <text class="label" x="1050" y="815">Quản lý vai trò</text>
  <ellipse class="uc" cx="1050" cy="905" rx="135" ry="34"/>
  <text class="label" x="1050" y="905">Quản lý quyền hạn</text>

  <!-- Liên kết tác nhân -->
  <path class="line" d="M125 205 L295 135 M125 205 L295 215 M125 205 L295 295"/>
  <path class="line" d="M125 635 L295 415 M125 635 L295 495 M125 635 L295 575 M125 635 L295 655 M125 635 L295 735 M125 635 L295 815 M125 635 L295 895"/>
  <path class="line" d="M1375 245 L865 150 M1375 245 L865 230 M1375 245 L865 310 M1375 245 L865 390 M1375 245 L865 470"/>
  <path class="line" d="M1375 595 L1185 150 M1375 595 L1185 240 M1375 595 L1185 440 M1375 595 L1185 530 M1375 595 L1185 620"/>
  <path class="line" d="M1375 885 L1185 815 M1375 885 L1185 905"/>

  <!-- Quan hệ include -->
  <ellipse class="uc" cx="730" cy="655" rx="115" ry="34"/>
  <text class="label" x="730" y="655">Thanh toán VNPay</text>
  <ellipse class="uc" cx="730" cy="735" rx="115" ry="34"/>
  <text class="label" x="730" y="735">Ký hợp đồng thuê</text>
  <path class="dash" d="M545 655 L615 655"/>
  <text x="580" y="642" font-size="13" text-anchor="middle">«include»</text>
  <path class="dash" d="M545 735 L615 735"/>
  <text x="580" y="722" font-size="13" text-anchor="middle">«include»</text>
</svg>
